<?xml version="1.0" encoding="UTF-8"?> <svg xmlns="http://www.w3.org/2000/svg" width="20" height="20" viewBox="0 0 20 20" fill="none"> <path d="M2 18C1.45 18 0.979333 17.8043 0.588 17.413C0.196 17.021 0 16.55 0 16V4C0 3.45 0.196 2.97933 0.588 2.588C0.979333 2.196 1.45 2 2 2H18C18.55 2 19.021 2.196 19.413 2.588C19.8043 2.97933 20 3.45 20 4V16C20 16.55 19.8043 17.021 19.413 17.413C19.021 17.8043 18.55 18 18 18H2ZM10 10.825C10.0833 10.825 10.1707 10.8123 10.262 10.787C10.354 10.7623 10.4417 10.725 10.525 10.675L17.6 6.25C17.7333 6.16667 17.8333 6.06267 17.9 5.938C17.9667 5.81267 18 5.675 18 5.525C18 5.19167 17.8583 4.94167 17.575 4.775C17.2917 4.60833 17 4.61667 16.7 4.8L10 9L3.3 4.8C3 4.61667 2.70833 4.61233 2.425 4.787C2.14167 4.96233 2 5.20833 2 5.525C2 5.69167 2.03333 5.83733 2.1 5.962C2.16667 6.08733 2.26667 6.18333 2.4 6.25L9.475 10.675C9.55833 10.725 9.646 10.7623 9.738 10.787C9.82933 10.8123 9.91667 10.825 10 10.825V10.825Z" fill="#BECAD1"></path> </svg> 