<?xml version="1.0" encoding="UTF-8"?> <svg xmlns="http://www.w3.org/2000/svg" width="442" height="205" viewBox="0 0 442 205" fill="none"> <path d="M67.0014 2.2602C44.9904 28.6734 25.2352 56.6855 13.5617 89.2968C6.55014 109.205 2.13346 129.934 0.420772 150.972C-0.499092 161.922 -0.192492 173.202 4.23162 183.408C6.18336 187.899 9.01142 191.955 12.5502 195.34C16.089 198.725 20.2675 201.369 24.841 203.119C29.8139 204.867 35.1481 205.33 40.3479 204.465C45.5478 203.6 50.4445 201.434 54.5832 198.169C63.0372 191.971 69.9143 183.079 76.4847 175.041C90.3961 158.151 102.617 139.936 112.973 120.66C118.207 110.936 123.004 100.948 127.274 90.7862C131.364 81.7607 134.633 72.3856 137.042 62.7741C138.904 54.2982 139.671 45.2529 137.042 36.8865C135.731 32.6499 133.384 28.8071 130.214 25.7058C127.044 22.6045 123.15 20.3425 118.886 19.1244C98.5177 13.2767 78.7844 28.542 65.3588 41.9677C49.902 57.3577 36.6366 74.8016 25.936 93.8085C23.3298 98.4517 20.8768 103.204 18.5552 108.023C17.4163 110.432 21.052 111.987 22.7822 112.162C24.0691 112.381 25.3922 112.195 26.5691 111.63C27.7459 111.065 28.7184 110.149 29.3527 109.008C38.1567 90.724 49.3274 73.6771 62.5773 58.3062C68.8204 50.8332 75.6775 43.8954 83.0771 37.5655C89.4723 32.2653 97.116 27.2498 105.395 25.6948C108.979 24.9402 112.709 25.3189 116.068 26.7787C119.427 28.2386 122.249 30.7071 124.142 33.8422C128.129 40.4127 128.413 48.6695 127.384 56.0941C125.93 64.669 123.49 73.0472 120.113 81.0619C116.419 90.5963 112.294 99.9483 107.738 109.118C98.6984 127.265 88.0015 144.538 75.7839 160.718C69.6369 168.894 63.1248 176.772 56.2477 184.349C50.9914 190.11 44.1143 197.994 35.5508 197.666C27.4472 197.359 20.2197 190.876 16.3212 184.218C11.2839 175.611 10.4954 165.164 10.9116 155.396C12.0061 135.402 15.7776 115.646 22.1252 96.6558C32.1342 65.8622 49.3925 38.9015 69.6295 13.868C71.9949 10.9478 74.3749 8.0276 76.7694 5.1074C78.4559 3.09246 76.3095 0.880402 74.3603 0.310963C73.0737 -0.0816806 71.7025 -0.102919 70.4044 0.249689C69.1064 0.602297 67.9343 1.31442 67.0233 2.30401L67.0014 2.2602Z" fill="#E43B2C"></path> <path d="M106.249 129.004C117.786 121.173 130.229 114.767 143.306 109.928C149.931 107.465 156.704 105.425 163.587 103.818C165.777 103.292 169.522 101.452 170.486 104.431C171.449 107.409 169.675 111.177 168.296 113.673C165.273 119.433 160.652 124.186 157.345 129.727C155.668 132.382 154.203 135.165 152.965 138.05C151.388 141.337 150.261 144.821 149.614 148.409C148.825 154.98 155.834 155.527 160.564 154.454C166.939 152.622 172.892 149.556 178.086 145.431C190.153 136.67 199.155 124.624 207.609 112.469L198.717 114.024C196.172 118.245 194.114 122.742 192.584 127.427C191.292 131.435 189.212 136.977 190.219 141.203C191.227 145.43 195.738 145.89 199.352 145.277C203.97 144.22 208.338 142.271 212.208 139.539C219.829 134.716 226.356 128.352 231.372 120.857C233.848 117.272 235.858 113.386 237.351 109.293C238.928 104.694 237.198 101.387 232.971 99.3278C223.531 94.838 211.902 98.4079 204.389 104.978C203.185 106.03 201.849 108.023 204.083 108.636C206.317 109.249 209.58 107.234 211.113 105.876C212.303 104.963 213.677 104.318 215.14 103.985C216.603 103.652 218.121 103.64 219.589 103.949C222.765 104.387 228.35 106.139 228.218 110.103C228.218 113.783 225.24 118.054 223.378 121.054C221.301 124.43 218.831 127.547 216.019 130.34C213.31 133.065 210.271 135.442 206.974 137.415C205.068 138.553 202.265 140.262 200.557 137.677C199.418 135.969 200.184 133.297 200.557 131.37C201.87 124.378 204.477 117.693 208.244 111.658C209.383 109.775 206.842 109.468 205.66 109.731C203.209 110.103 200.973 111.338 199.352 113.213C192.146 123.595 184.612 134.283 174.581 142.167C172.606 143.724 170.512 145.122 168.318 146.35C166.575 147.699 164.453 148.466 162.251 148.541C156.096 147.686 162.251 136.21 163.587 133.209C166.768 127.38 170.431 121.827 174.538 116.608C177.626 112.228 181.59 106.052 180.429 100.379C179.006 93.4801 169.281 97.2253 164.835 98.3203C157.89 100.03 151.045 102.128 144.335 104.606C129.308 110.139 115.016 117.494 101.781 126.508C100.708 127.23 97.9918 129.399 99.5906 130.735C101.189 132.071 105.066 129.859 106.292 129.026L106.249 129.004Z" fill="#E43B2C"></path> <path d="M264.991 89.0123C261.443 96.0646 257.698 103.007 254.04 110.016C250.383 117.024 247.207 124.296 244.141 131.589C243.881 132.178 243.743 132.814 243.735 133.458C243.727 134.102 243.85 134.741 244.095 135.336C244.341 135.932 244.704 136.471 245.164 136.923C245.623 137.374 246.169 137.727 246.769 137.962C248.959 138.97 252.923 138.685 254.018 136.057C257.085 128.785 260.282 121.536 263.918 114.506C267.554 107.475 271.299 100.554 274.869 93.4802C277.76 87.7639 267.685 83.6464 264.991 89.0999V89.0123Z" fill="#E43B2C"></path> <path d="M234.898 116.214L304.238 99.5468C306.429 99.0212 302.662 98.2765 302.267 98.2546C299.77 97.9471 297.238 98.0582 294.777 98.5831L225.437 115.25C223.247 115.776 227.014 116.52 227.408 116.564C229.907 116.853 232.437 116.735 234.898 116.214Z" fill="#E43B2C"></path> <path d="M291.251 85.3331C285.429 98.906 278.43 111.943 270.335 124.296C266.897 129.552 277.168 132.224 279.95 127.975C288.434 114.998 295.762 101.3 301.851 87.0414C302.925 84.5446 299.88 82.6611 297.843 82.2449C296.561 81.975 295.226 82.1305 294.041 82.6878C292.855 83.2451 291.883 84.1737 291.273 85.3331H291.251Z" fill="#E43B2C"></path> <path d="M296.222 104.562L320.84 99.7223C328.182 98.5403 335.456 96.9685 342.632 95.0134C347.779 93.4146 356.364 90.1513 357.021 83.7999C357.766 76.7914 348.26 73.9442 342.982 73.1557C329.162 71.097 315.956 78.872 307.348 89.2095C303.735 93.5898 299.42 99.5471 298.369 105.22C297.23 111.308 303.932 114.221 308.706 115.448C316.411 117.078 324.395 116.837 331.987 114.747C339.722 112.895 347.011 109.523 353.429 104.825C355.072 103.621 350.582 102.088 350.034 101.956C348.129 101.452 344.953 100.817 343.179 102.11C334.532 108.704 323.983 112.323 313.108 112.425C303.384 112.14 314.247 96.1304 316.788 92.9109C322.526 85.6615 331.9 77.5798 341.58 76.879C346.092 76.5724 347.472 82.3544 344.406 85.6396C340.814 89.6257 334.988 91.334 329.929 92.5386C316.416 95.6924 302.639 97.9702 289.017 100.642C287.046 101.036 286.827 102.197 288.579 103.205C290.923 104.44 293.604 104.885 296.222 104.475V104.562Z" fill="#E43B2C"></path> <path d="M369.439 63.475L353.32 111.308C352.509 113.717 355.269 114.396 357.065 114.089C358.372 113.892 359.609 113.373 360.664 112.577C361.72 111.782 362.56 110.736 363.11 109.534L379.251 61.6353C380.061 59.2261 377.302 58.5471 375.506 58.8538C374.197 59.0531 372.958 59.5734 371.9 60.3683C370.841 61.1633 369.996 62.208 369.439 63.4093V63.475Z" fill="#E43B2C"></path> <path d="M369.264 89.1656C390.378 88.3452 410.426 79.6763 425.485 64.8549C427.018 63.2999 428.683 60.6498 426.558 58.7882C425.432 58.1099 424.114 57.8217 422.807 57.9681C421.501 58.1146 420.279 58.6877 419.331 59.5986C406.445 72.5052 389.134 80.0294 370.907 80.6459C369.545 80.7325 368.244 81.2408 367.184 82.1003C366.125 82.9598 365.359 84.1279 364.993 85.4424C364.489 88.1801 366.986 89.297 369.264 89.2094V89.1656Z" fill="#E43B2C"></path> <path d="M362.584 84.7416C369.987 96.8531 384.223 100.357 397.364 102.548C412.038 105.176 428.792 106.796 441.013 96.2618C442.546 94.9477 442.306 93.7869 440.203 93.6117C437.557 93.4668 434.942 94.2405 432.8 95.8018C430.955 97.3086 428.824 98.4268 426.536 99.0892C424.248 99.7516 421.849 99.9445 419.484 99.6565C413.224 99.219 407.007 98.2964 400.89 96.8969C390.333 94.7068 378.988 91.1587 373.119 81.4563C371.41 78.6529 361.489 82.7923 362.628 84.654L362.584 84.7416Z" fill="#E43B2C"></path> </svg> 