<?xml version="1.0" encoding="UTF-8"?> <svg xmlns="http://www.w3.org/2000/svg" width="62" height="64" viewBox="0 0 62 64" fill="none"> <path d="M17.0502 35.6143C28.8423 28.4132 38.4528 17.8462 44.5554 5.46357C44.9568 4.71278 41.844 2.23249 41.1965 2.79201C37.5155 5.73061 36.0492 10.3907 34.6942 14.7122C33.0115 19.9632 31.495 25.313 30.1508 30.6753C28.8992 35.9577 27.7275 41.3326 26.8144 46.7264C26.6402 47.9271 26.6259 49.3128 26.0269 50.3959C25.5205 51.399 24.4608 51.6685 23.42 51.6793C20.9934 51.6758 18.6594 51.5924 16.2203 51.7613C10.6335 52.3076 5.23625 53.8211 0.200968 56.3143C-0.0702368 56.4679 2.58005 59.3478 3.46732 59.0658C17.5208 55.323 31.7279 51.8513 45.9897 48.8171C50.0372 47.9853 54.091 47.0673 58.2185 46.328C58.8345 46.1996 57.623 44.9846 57.4568 44.8858C57.0509 44.5095 55.833 43.3807 55.1308 43.5029C40.7953 46.3584 26.6071 49.5714 12.4799 53.1355C8.41988 54.1397 4.43973 55.2364 0.465881 56.2469C1.52383 57.1907 2.58806 58.0483 3.73223 58.9984C8.31759 56.7324 13.2775 55.2738 18.347 54.6898C20.7924 54.4346 23.3114 54.3582 25.7317 54.4479C26.68 54.517 27.6346 54.4999 28.5282 54.1317C29.5142 53.6835 29.7621 52.6615 29.9174 51.7194C31.7561 40.7595 34.1858 30.0159 37.4713 19.4215C39.0426 14.509 40.4119 8.80182 44.6353 5.55607C43.4849 4.69219 42.4269 3.74838 41.2765 2.88451C35.1739 15.2672 25.5634 25.8341 13.7713 33.0352C13.4265 33.0101 16.1441 36.155 17.0502 35.6143Z" fill="#E43B2C"></path> </svg> 