<?xml version="1.0" encoding="UTF-8"?> <svg xmlns="http://www.w3.org/2000/svg" width="690" height="301" viewBox="0 0 690 301" fill="none"> <path d="M1 40.5184C1.85232 44.3538 11.4748 49.7409 14.3228 52.378C23.1838 60.5826 33.8525 67.5797 43.9719 74.095C67.7844 89.4263 91.899 101.077 120.289 104.899C156.387 109.759 190.509 107.267 224.1 93.2706C241.223 86.1358 261.162 71.9193 261.604 51.1458C262.048 30.2673 249.936 19.4136 233.572 8.32796C222.341 0.719688 196.126 -4.06175 187.52 10.0222C172.887 33.9657 172.271 58.2619 182.591 84.7995C190.205 104.379 202.932 122.115 223.33 129.081C240.328 134.885 259.324 133.393 277.006 133.393C296.107 133.393 311.845 135.703 329.219 143.096C343.785 149.295 357.138 165.469 365.491 178.521C382.334 204.839 374.166 219 408.54 261.231C414.38 268.406 434.521 278.417 443 281.5C461.235 288.131 477.846 290.708 497 294C564.464 305.595 621.301 297.57 688.55 285.874" stroke="white" stroke-width="2" stroke-linecap="round" stroke-dasharray="6 6"></path> </svg> 