<?xml version="1.0" encoding="UTF-8"?> <svg xmlns="http://www.w3.org/2000/svg" width="631" height="390" viewBox="0 0 631 390" fill="none"> <g clip-path="url(#clip0_509_23)"> <path d="M18.1506 297.597C18.1506 297.597 367.11 330.764 470.489 296.079C521.045 279.116 381.85 249.928 387.58 226.892C393.311 203.856 546.908 213.026 558.927 201.09C570.946 189.154 470.257 155.717 477.844 134.301C485.43 112.885 573.375 115.206 582.542 102.378C591.709 89.5502 543.825 71.7713 549.449 51.0573C555.074 30.3432 606.202 2.90021 623.68 -1.06217L623.527 2.80498C623.527 2.80498 559.796 32.8559 559.092 50.6704C558.389 68.4848 599.558 85.9985 597.828 105.308C596.099 124.617 492.232 119.748 486.369 137.743C480.882 154.589 595.323 180.811 586.511 209.158C577.698 237.504 402.665 210.424 399.939 230.485C397.289 250.084 569.523 278.925 535.3 311.816C480.295 364.695 199.013 347.389 199.013 347.389L3.28344 332.682L18.1506 297.597Z" fill="#E6E9EB"></path> <path d="M536.562 352.959C536.562 352.959 574.797 335.091 570.164 306.214C565.53 277.337 406.564 245.472 409.522 231.631C412.214 219.013 601.513 237.909 606.243 209.157C610.67 182.197 490.986 154.593 494.05 138.046C496.327 125.714 559.27 119.301 559.27 119.301C559.27 119.301 497.677 127.721 496.933 138.16C495.861 153.238 617.009 183.61 611.502 209.761C604.392 243.594 414.196 222.906 413.339 232.561C412.362 243.398 585.123 268.806 606.806 304.555C628.49 340.305 596.787 363.095 596.787 363.095L536.562 352.959Z" fill="#E6E9EB"></path> </g> <defs> <clipPath id="clip0_509_23"> <rect width="616.312" height="365.144" fill="white" transform="translate(14.406) rotate(2.26106)"></rect> </clipPath> </defs> </svg> 