<?xml version="1.0" encoding="UTF-8"?> <svg xmlns="http://www.w3.org/2000/svg" width="76" height="59" viewBox="0 0 76 59" fill="none"> <path d="M33.9829 11.2004C34.9829 11.5004 35.9829 11.7005 36.8829 12.0005C36.9829 11.8005 37.1829 11.5004 37.3829 11.3004C37.5829 11.1004 37.7829 10.9004 37.8829 10.7004C38.3829 10.2004 38.8829 9.70044 39.4829 9.20044C40.5829 8.20044 41.7829 7.40043 43.0829 6.60043C45.4829 5.20043 48.2829 4.00043 51.0829 3.60043C51.6829 3.50043 52.3829 3.40043 53.0829 3.60043C53.1829 3.60043 53.4829 3.80043 53.0829 3.60043C53.2829 3.70043 53.4829 4.00044 53.6829 4.20044C54.3829 5.10044 54.8829 6.30045 55.1829 7.40045C55.8829 9.70045 55.8829 12.1004 55.4829 14.4004C54.7829 18.6004 51.8829 23.8004 47.5829 25.1004C47.0829 25.2004 46.6829 25.2004 46.2829 25.3004C46.0829 25.3004 45.9829 25.2004 45.9829 25.3004L46.4829 25.6004C46.2829 25.7004 46.2829 24.7004 46.3829 24.6004C46.4829 24.1004 46.7829 23.6004 47.0829 23.2004C48.7829 21.1004 51.6829 20.4004 54.1829 19.9004C59.0829 18.8004 64.8829 18.8004 68.0829 23.4004C70.8829 27.6004 71.0829 33.0005 69.1829 37.5005C64.3829 48.9005 51.1829 52.7005 39.9829 54.5005C27.5829 56.5005 12.2829 55.4004 4.38291 44.3004C3.68291 43.3004 2.58287 42.5004 1.28287 42.6004C0.282871 42.7004 -0.417129 43.5004 0.282871 44.4004C4.48287 50.3004 10.6829 54.5004 17.4829 56.7004C25.3829 59.3004 33.8829 59.3005 42.0829 58.0005C49.7829 56.8005 57.7829 55.0004 64.3829 50.6004C69.9829 46.9004 74.5829 40.9005 75.0829 34.0005C75.5829 27.4005 71.9829 20.6004 66.0829 17.6004C62.5829 15.8004 58.5829 15.4004 54.7829 15.9004C51.2829 16.3004 47.3829 17.1004 44.5829 19.2004C41.9829 21.2004 40.9829 24.3004 43.4829 26.8004C45.9829 29.3004 49.7829 29.3004 52.7829 27.7004C58.0829 24.8004 60.8829 17.9004 60.5829 12.1004C60.3829 8.90043 59.3829 5.50045 57.2829 3.00046C54.4829 -0.299545 50.2829 -0.499569 46.3829 0.600431C42.8829 1.50043 39.5829 3.20046 36.6829 5.50046C35.3829 6.50046 33.8829 7.80044 32.9829 9.20044C31.7829 11.1004 32.9829 13.0004 34.8829 13.9004C36.2829 14.6004 38.3829 14.7004 38.8829 12.9004C39.0829 11.1004 34.5829 9.00044 33.9829 11.2004Z" fill="#E43B2C"></path> </svg> 