<?xml version="1.0" encoding="UTF-8"?> <svg xmlns="http://www.w3.org/2000/svg" width="695" height="263" viewBox="0 0 695 263" fill="none"> <g clip-path="url(#clip0_414_361)"> <path d="M68.7756 117.443C58.2991 142.707 48.801 168.354 40.2815 194.383C37.8805 201.732 35.5518 209.113 33.2955 216.526C32.9435 217.68 35.4106 217.111 35.7973 216.973C36.4257 216.807 37.0092 216.503 37.5054 216.084C38.0016 215.664 38.398 215.139 38.6657 214.547C46.5472 188.543 55.4199 162.853 65.284 137.475C68.0615 130.357 70.9156 123.269 73.8462 116.209C74.3271 115.064 72.9788 114.97 72.1509 115.182C71.0508 115.412 69.2313 116.156 68.7504 117.3L68.7756 117.443Z" fill="#E43B2C"></path> <path d="M11.0192 142.29C27.1337 137.493 43.6081 134 60.283 131.846C68.5417 130.792 76.8406 130.059 85.1799 129.646C87.1066 129.558 89.0617 129.401 90.9927 129.418L91.8838 129.481C90.998 130.349 91.0923 128.671 91.0429 128.703C91.2513 128.588 90.6177 129.557 90.749 129.366C90.5649 129.619 90.351 129.85 90.1117 130.052C88.7318 131.009 87.1847 131.7 85.5505 132.088L78.9959 134.491L51.1797 144.709C50.7 144.866 50.3018 145.207 50.0716 145.656C49.8415 146.106 49.7981 146.628 49.9508 147.109C49.9956 147.234 50.05 147.356 50.1137 147.474C50.4679 148.045 50.978 148.503 51.5838 148.794C52.1896 149.085 52.8659 149.196 53.5331 149.116L97.8331 146.441C103.217 146.112 110.159 145.574 113.927 150.316C114.688 151.213 115.209 152.289 115.439 153.443C115.67 154.597 115.602 155.791 115.243 156.912C114.424 159.031 112.927 160.819 110.986 161.997C106.342 165.206 100.48 166.644 95.2181 168.419C89.0516 170.496 82.8658 172.512 76.6792 174.541C64.4031 178.557 52.1346 182.632 40.1349 187.41C26.5317 192.662 13.4802 199.244 1.17043 207.06C-0.0629126 207.846 0.351102 209.501 1.295 210.321C1.85241 210.801 2.54606 211.095 3.27877 211.161C4.01148 211.227 4.74656 211.063 5.38103 210.69C28.3054 195.805 54.4177 187.034 80.2355 178.596C86.7469 176.473 93.2583 174.349 99.7512 172.154C105.291 170.281 111.309 168.642 116.026 165.049C120.448 161.648 122.887 156.105 120.23 150.817C117.129 144.638 110.243 142.033 103.748 141.742C99.5468 141.698 95.3464 141.871 91.1633 142.261L78.0275 143.083L51.7951 144.67L54.1954 149.08L81.5019 139.073L88.0448 136.669C90.1456 136.086 92.1467 135.19 93.9811 134.011C95.3415 133.112 96.3133 131.733 96.7029 130.149C97.0668 127.818 95.2751 125.984 93.2268 125.286C91.1786 124.589 88.8695 124.922 86.7661 125.01C84.4031 125.103 81.9564 125.214 79.5541 125.363C74.9394 125.644 70.3292 126.028 65.7237 126.513C56.5125 127.485 47.3597 128.857 38.2651 130.63C28.0476 132.623 17.9412 135.102 7.94591 138.069C7.70265 138.15 7.47784 138.278 7.28448 138.446C7.09112 138.614 6.93305 138.819 6.8194 139.049C6.70576 139.279 6.6388 139.529 6.62239 139.785C6.60599 140.041 6.64047 140.297 6.72384 140.54C6.78969 140.753 6.89565 140.953 7.03606 141.127C7.49821 141.709 8.12721 142.136 8.83872 142.35C9.55022 142.564 10.3102 142.556 11.0168 142.326L11.0192 142.29Z" fill="#E43B2C"></path> <path d="M156.262 117.046C147.07 131.332 140.665 147.229 137.386 163.898C137.198 164.898 138.441 165.645 139.175 165.932C139.717 166.153 140.298 166.26 140.883 166.247C141.468 166.233 142.043 166.099 142.574 165.853C157.899 158.681 167.294 143.682 175.744 129.724L170.175 128.155L164.17 158.98C163.732 161.188 168.086 161.764 169.358 160.934C179.08 154.57 186.382 145.124 190.092 134.113L184.285 132.916L178.57 152.733C178.367 153.449 179.165 154.165 179.699 154.45C181.181 155.275 182.871 155.655 184.564 155.541C186.257 155.428 187.881 154.827 189.24 153.812C191.896 151.889 193.886 149.048 195.881 146.49C200.279 140.81 204.263 134.821 207.801 128.57L202.233 127C201.096 134.284 199.473 141.484 197.374 148.551C196.771 150.582 201.433 151.486 202.563 150.494L218.307 136.683C219.562 135.593 218.331 134.328 217.1 133.9C215.785 133.355 214.348 133.173 212.938 133.375C211.529 133.577 210.2 134.154 209.09 135.046C208.158 135.813 207.442 136.811 207.013 137.94C206.585 139.07 206.459 140.291 206.647 141.484C207.731 147.192 214.828 149.646 219.899 149.425C223.104 149.167 226.233 148.312 229.124 146.903C232.151 145.572 235.206 144.184 238.123 142.751C241.039 141.318 244.224 139.751 247.182 138.062C249.772 136.582 252.836 135.065 254.899 132.866C256.454 131.196 257.464 128.557 255.43 126.811C253.21 124.876 249.438 124.894 246.912 126.308C243.453 128.245 242.162 133.044 243.369 136.663C245.156 142.09 251.54 144.129 256.731 143.869C261.921 143.609 268.14 140.782 270.516 135.812C273.414 129.771 268.603 123.789 263.285 121.33C256.255 118.08 248.435 120.382 241.61 122.955C241.274 123.022 240.979 123.22 240.788 123.505C240.598 123.79 240.529 124.138 240.596 124.474C240.665 124.797 240.85 125.082 241.117 125.276C241.671 125.744 242.332 126.067 243.041 126.215C243.751 126.364 244.486 126.333 245.181 126.127C249.344 124.558 254.038 122.649 258.572 123.344C260.268 123.653 261.834 124.455 263.075 125.651C264.316 126.847 265.176 128.383 265.547 130.067C266.327 134.057 263.119 137.295 259.854 138.987C257.212 140.368 253.333 141.25 250.775 139.245C248.539 137.533 248.349 134.362 249.256 131.857C249.621 130.694 250.399 129.706 251.442 129.076C251.672 129.006 251.898 128.924 252.119 128.829C251.982 128.938 252.318 128.69 252.225 128.837L252.377 128.848L250.81 128.172L250.746 129.086C250.602 129.457 250.411 129.808 250.178 130.131C248.878 131.866 246.706 132.938 244.908 134.038C242.852 135.295 240.732 136.466 238.592 137.577C234.337 139.787 229.964 141.825 225.577 143.732C222.16 145.236 217.354 147.408 214.043 144.56C213.335 143.983 212.819 143.205 212.563 142.329C212.307 141.453 212.323 140.519 212.608 139.652C212.888 138.828 213.378 138.09 214.031 137.514C214.323 137.263 214.646 137.052 214.994 136.886C215.618 136.553 215.439 136.917 214.943 136.765L213.725 133.981L197.968 147.803L203.181 149.748C205.267 142.64 206.873 135.399 207.989 128.076C208.316 125.943 203.405 124.738 202.424 126.448C199.518 131.593 196.309 136.561 192.814 141.326C191.083 143.667 189.285 145.956 187.443 148.195C186.667 149.188 185.781 150.09 184.803 150.885C184.35 151.252 183.854 151.561 183.325 151.806C182.571 152.13 182.616 151.827 183.196 152.127L184.324 153.855L190.04 134.027C190.663 131.855 185.025 130.6 184.233 132.83C180.734 143.243 173.837 152.179 164.649 158.2L169.837 160.155L175.899 129.358C176.309 127.207 171.333 126.092 170.33 127.789C162.017 141.485 152.914 156.187 137.881 163.214L143.07 165.169C146.274 148.792 152.569 133.175 161.617 119.154C162.945 117.008 157.432 115.325 156.246 117.115L156.262 117.046Z" fill="#E43B2C"></path> <path d="M293.037 110.553C282.637 125.336 272.043 139.968 261.255 154.449L264.942 158.49C266.656 150.857 271.809 144.574 276.923 138.865C282.037 133.156 287.842 127.331 291.586 120.324L288.314 118.092C291.057 125.531 291.163 133.686 288.612 141.194C288.51 141.764 288.536 142.35 288.688 142.909C288.841 143.468 289.116 143.986 289.493 144.425C289.815 144.872 291.213 146.608 291.933 145.916C298.126 139.685 303.841 132.997 309.032 125.909C309.965 124.702 307.082 120.116 305.712 121.175C304.079 122.45 302.372 123.933 302.137 126.108C302.081 127.3 302.294 128.489 302.762 129.587C303.23 130.685 303.939 131.663 304.838 132.448C308.163 135.426 313.807 131.899 316.422 129.396C317.886 128.145 319.078 126.607 319.925 124.877C320.772 123.147 321.255 121.262 321.346 119.338C321.332 115.508 319.447 110.805 315.696 109.186C311.35 107.314 307.502 111.945 305.269 115.064C302.656 118.71 300.396 123.547 300.616 128.134C300.77 130.395 301.557 132.567 302.886 134.402C304.216 136.237 306.035 137.661 308.135 138.511C312.033 140.057 316.414 139.741 320.493 139.379C332.231 138.475 343.761 135.776 354.681 131.375C356.208 130.764 353.447 125.621 351.591 126.375C340.403 130.892 328.557 133.57 316.513 134.304C313.439 134.654 310.328 134.435 307.333 133.66C306.38 133.431 305.501 132.964 304.777 132.302C304.114 131.513 304.498 129.396 304.742 128.27C305.589 124.751 307.2 121.461 309.46 118.634C310.485 117.245 311.707 116.013 313.086 114.977C313.666 114.533 314.337 114.224 315.05 114.07C315.764 113.916 316.503 113.923 317.214 114.088C317.577 114.114 317.433 114.316 317.225 113.924C317.403 114.3 317.507 114.708 317.53 115.124C317.697 116.392 317.542 117.682 317.078 118.874C315.747 122.218 313.294 124.994 310.141 126.729C309.396 127.122 308.624 127.462 307.831 127.745C307.408 127.892 306.985 128.039 306.553 128.15C306.121 128.261 305.373 128.173 304.905 128.305L305.964 129.994C305.93 129.814 305.943 129.628 306.002 129.454C306.127 129.082 306.286 128.722 306.478 128.38C307.124 127.481 307.925 126.703 308.843 126.084L305.523 121.35C300.339 128.055 295.078 134.85 288.913 140.767L292.234 145.501C295.16 136.49 294.827 126.738 291.293 117.947C291.043 117.306 288.849 114.159 288.021 115.715C280.522 129.728 264.877 138.597 261.165 154.714C260.876 155.978 263.564 160.49 264.852 158.754C275.648 144.274 286.238 129.646 296.622 114.869C297.631 113.42 294.225 108.739 293.06 110.401L293.037 110.553Z" fill="#E43B2C"></path> <path d="M399.825 51.5511C388.547 70.2891 381.619 91.3195 379.552 113.092C379.077 118.183 378.403 123.745 379.475 128.792C380.053 131.211 381.121 133.487 382.612 135.478C384.104 137.47 385.987 139.134 388.147 140.37C396.634 145.678 407.421 146.436 417.036 144.401C435.807 140.511 452.223 127.713 463.401 112.486C474.562 97.4835 480.863 79.4233 481.455 60.7337C481.633 52.4987 480.672 43.1823 474.78 36.8304C473.161 35.1401 471.22 33.7912 469.071 32.8633C466.922 31.9354 464.61 31.4473 462.269 31.4278C456.843 31.3533 451.705 33.3726 446.971 35.8679C444.731 37.0539 442.575 38.3988 440.451 39.7814C440.215 39.9017 440.004 40.0675 439.831 40.2692C439.659 40.4709 439.528 40.7047 439.445 40.9571C439.363 41.2096 439.331 41.4757 439.352 41.7404C439.372 42.0051 439.445 42.2632 439.565 42.4998C439.651 42.6729 439.763 42.8317 439.898 42.9709C440.48 43.4203 441.189 43.6762 441.925 43.7024C442.66 43.7287 443.386 43.5242 443.999 43.1174C450.605 38.8094 460.444 32.584 468.119 38.0595C474.223 42.4114 475.557 51.2592 475.671 58.2068C475.953 75.1693 470.52 92.1313 461.337 106.297C452.154 120.462 438.263 132.883 422.065 138.391C413.859 141.161 404.667 142.024 396.423 138.948C392.484 137.493 388.523 135.012 386.471 131.18C384.23 127.017 384.769 121.847 385.088 117.309C386.396 97.0498 392.016 77.3033 401.572 59.391C402.726 57.2217 403.96 55.0815 405.228 52.9672C405.975 51.7236 404.887 50.4337 403.696 50.1144C402.987 49.9249 402.235 49.9617 401.548 50.2197C400.86 50.4777 400.27 50.944 399.86 51.5536L399.825 51.5511Z" fill="#E43B2C"></path> <path d="M457.51 106.099C467.717 102.692 478.002 99.5137 488.503 96.9519C488.923 96.84 489.355 96.7406 489.785 96.653C490.676 96.7156 490.621 96.3229 489.606 95.3444C488.562 93.4214 489.039 94.0204 488.683 95.0675C488.267 96.0317 487.7 96.9228 487.001 97.7065L482.035 104.168L471.808 117.589C470.964 118.708 473.68 122.987 475.055 122.529C487.077 118.111 497.463 110.125 504.821 99.6408L501.427 94.9607C500.931 98.3309 500.329 101.705 499.962 105.085C499.792 106.6 499.97 108.134 500.481 109.57C500.993 111.007 501.825 112.308 502.914 113.375C506.555 117.07 512.325 115.602 516.38 113.401C520.668 111.038 524.011 107.27 525.847 102.731C526.924 100.37 527.347 97.7628 527.072 95.1822C526.783 93.6903 526.152 92.2857 525.229 91.0784C524.306 89.871 523.116 88.8935 521.752 88.2225C518.995 87.0511 515.641 87.169 512.732 87.4833C509.364 87.8555 506.082 88.7965 503.029 90.266C502.016 90.7605 504.913 95.8181 506.275 95.2068C510.464 93.1624 515.095 92.188 519.753 92.3709C520.715 92.3911 521.673 92.4939 522.618 92.678C523.072 92.77 523.516 92.9037 523.945 93.0775C524.074 93.0866 524.339 93.3408 524.457 93.3373C524.829 93.5755 524.711 93.414 524.104 92.8294C523.706 92.1103 523.538 91.9925 523.598 92.4758C523.471 93.0251 523.432 93.5909 523.481 94.1524C523.435 94.5652 523.355 94.9735 523.242 95.3728C523.031 96.3117 522.75 97.2332 522.4 98.1297C519.843 104.678 512.654 111.089 505.224 110.685C504.701 110.663 504.181 110.587 503.673 110.459C503.276 110.24 502.864 110.05 502.44 109.889C502.834 109.822 503.3 111.917 503.531 111.144C503.541 110.84 503.526 110.535 503.488 110.234C503.525 109.599 503.597 108.967 503.704 108.34C504.137 105.354 504.583 102.369 505.015 99.3953C505.007 98.2392 504.574 97.1265 503.797 96.27C503.626 96.0223 502.055 94.0622 501.637 94.6456C494.279 105.133 483.894 113.123 471.87 117.546L475.117 122.487L484.458 110.264L489.038 104.271C490.218 102.739 491.792 101.13 492.315 99.2106C492.483 98.2229 492.418 97.2098 492.128 96.251C491.838 95.2922 491.329 94.4139 490.641 93.6851C490.032 92.8268 489.179 92.1717 488.193 91.8049C487.107 91.6444 485.998 91.7696 484.974 92.168C480.112 93.3977 475.283 94.7278 470.485 96.1583C465.032 97.7549 459.619 99.4524 454.245 101.251C453.365 101.543 455.927 106.671 457.492 106.192L457.51 106.099Z" fill="#E43B2C"></path> <path d="M533.982 81.0103C531.387 90.7933 529.288 100.701 527.692 110.696L531.881 114.135C531.687 112.253 531.93 110.352 532.592 108.58C533.254 106.807 534.316 105.212 535.697 103.917C537.201 102.522 539.023 101.513 541.004 100.979C542.941 100.538 544.821 99.8796 546.609 99.0162C552.457 95.7742 551.568 86.781 557.814 84.0853L553.691 80.0375L549.397 97.2325C548.827 99.4782 547.571 102.1 548.615 104.353C549.154 105.569 552.114 109.724 553.725 108.093C554.701 107.113 550.627 102.88 549.714 103.794C549.71 103.85 549.684 103.902 549.642 103.939C549.6 103.975 549.544 103.994 549.488 103.99C549.445 103.999 549.401 103.995 549.359 103.981L550.177 104.25L549.985 104.131L551.603 105.423C552.763 106.682 552.31 106.757 552.423 105.822C552.497 105.431 552.595 105.044 552.716 104.664L553.487 101.573L554.962 95.6673L557.913 83.8449C558.238 82.5717 555.09 79.2402 553.79 79.8087C547.289 82.616 548.396 92.1901 541.791 95.1433C539.845 96.0082 537.702 96.329 535.764 97.0766C533.953 97.7528 532.33 98.8505 531.027 100.279C529.745 101.723 528.791 103.428 528.232 105.276C527.673 107.125 527.522 109.073 527.789 110.985C527.925 112.079 529.217 113.301 530.01 113.933C530.311 114.167 531.831 115.346 531.978 114.425C533.574 104.427 535.674 94.515 538.269 84.7281C538.653 83.2823 534.354 79.7404 534.037 80.8963L533.982 81.0103Z" fill="#E43B2C"></path> <path d="M559.914 96.2859C569.133 96.2367 578.198 93.9191 586.309 89.5379C588.084 88.5786 590.158 87.5695 591.193 85.757C591.666 84.7983 591.877 83.7318 591.805 82.6653C591.733 81.5988 591.38 80.5703 590.783 79.6839C588.597 76.0783 584.339 74.9665 580.354 75.0048C576.594 75.1518 572.927 76.2147 569.672 78.1011C566.416 79.9874 563.671 82.6403 561.673 85.8291C559.419 89.2502 558.287 93.2892 558.435 97.3839C558.814 102.394 562.807 104.925 567.367 105.599C577.182 107.064 587.179 104.613 595.204 98.775C595.683 98.3385 595.989 97.7444 596.066 97.1011C596.144 96.4578 595.988 95.808 595.627 95.2701C595.202 94.4391 593.661 92.7168 592.531 93.5447C586.77 97.8128 579.851 100.235 572.685 100.493C569.732 100.604 565.815 100.682 563.175 99.1776C563.005 99.0827 562.857 98.9517 562.743 98.7938C563.039 99.2741 562.779 98.2779 562.781 98.2427C562.758 97.5635 562.806 96.8838 562.924 96.2144C563.191 94.7288 563.66 93.287 564.32 91.9295C565.646 89.2415 567.546 86.8779 569.887 85.0061C572.227 83.1343 574.951 81.8002 577.864 81.0982C580.486 80.5046 583.821 80.1614 586.308 81.3257C586.39 81.3314 587.753 82.0516 587.62 82.2661C587.116 83.0673 587.44 81.8175 587.353 81.7171L587.368 81.4943C587.33 81.7124 587.22 81.9117 587.057 82.0616C586.079 83.4068 583.856 84.1933 582.423 84.9764C574.938 88.785 566.66 90.7753 558.262 90.7855C555.457 90.8007 557.367 96.3192 559.913 96.3094L559.914 96.2859Z" fill="#E43B2C"></path> <path d="M607.561 69.1032C601.61 81.9092 597.93 95.6523 596.686 109.719C596.625 110.586 601.869 109.399 602.331 108.524C608.979 95.9238 616.585 83.853 625.084 72.4188C625.604 71.7248 623.315 71.9294 623.22 71.9462C621.976 72.0487 620.777 72.4584 619.731 73.1387C614.19 77.3493 609.166 82.2014 604.766 87.5935C604.745 87.6204 604.728 87.6515 604.719 87.6847C604.709 87.718 604.707 87.7528 604.711 87.7872C604.715 87.8215 604.726 87.8547 604.743 87.8847C604.76 87.9147 604.784 87.941 604.811 87.9619L604.87 87.966C614.197 94.0641 625.991 94.3972 636.624 92.3159C648.57 89.9734 659.867 84.9696 671.155 80.6014L691.25 72.7867C691.928 72.528 692.979 71.9891 692.011 71.5088C691.043 71.0284 688.922 71.8693 688.049 72.2204L655.882 84.678C646.434 88.3389 636.651 91.929 626.349 91.3119C620.636 91.0268 615.095 89.2571 610.274 86.1775L610.376 86.5734C614.624 81.3703 619.481 76.6955 624.844 72.6493L619.491 73.3693C610.993 84.8036 603.386 96.8744 596.738 109.475L602.384 108.269C603.628 94.3737 607.275 80.8001 613.165 68.1535C613.553 67.3206 611.218 67.6869 610.932 67.7375C610.109 67.88 607.988 68.2142 607.558 69.1384L607.561 69.1032Z" fill="#E43B2C"></path> </g> <defs> <clipPath id="clip0_414_361"> <rect width="680.698" height="215.366" fill="white" transform="translate(15.0815) rotate(4.01557)"></rect> </clipPath> </defs> </svg> 