<?xml version="1.0" encoding="UTF-8"?> <svg xmlns="http://www.w3.org/2000/svg" width="54" height="59" viewBox="0 0 54 59" fill="none"> <path d="M16.9259 21.43C13.2307 20.8142 10.1514 18.1748 8.65576 14.7436C7.86394 12.808 7.688 10.6965 9.0077 8.93686C10.1514 7.52918 11.8231 6.73735 13.4067 6.12149C17.8937 4.44987 22.9085 3.30613 27.6594 2.69027C32.0584 2.16239 36.7214 2.16239 41.0324 3.65806C44.7276 4.88978 49.3025 7.44121 49.6545 11.7522C50.0064 16.2392 46.3112 20.1983 43.4959 23.1017C37.5132 29.2603 30.3869 34.0992 23.3484 38.8501C15.2543 44.2169 7.07214 49.4957 0.209691 56.4461C-0.93405 57.5899 2.93707 58.9096 3.7289 58.4697C19.1254 51.5192 35.3137 46.1525 51.854 42.4573C52.8218 42.2813 51.942 41.2256 51.59 40.9616C50.7982 40.4337 49.6545 40.0818 48.5988 40.2578C32.0585 43.865 15.9581 49.2317 0.473621 56.2702C1.61736 56.974 2.84908 57.6779 3.99283 58.2937C17.4538 44.7448 36.0176 37.5304 48.8627 23.2776C51.854 19.9344 55.2852 15.0955 53.2617 10.4325C51.3261 5.94555 45.8713 3.13017 41.4723 1.72248C36.4575 0.050861 31.0907 -0.301043 25.8119 0.226837C22.9965 0.578758 20.1812 1.10662 17.3658 1.72248C14.9024 2.33834 12.4389 2.95423 10.0634 3.83403C8.03988 4.62585 5.92838 5.68159 4.69666 7.44119C3.11301 9.64069 3.64087 12.2801 4.78461 14.5676C7.0721 19.3185 12.175 22.5738 17.2778 23.4536C17.8057 23.5416 19.2134 23.8055 19.1254 22.8377C19.2134 22.1339 17.5418 21.518 16.9259 21.43Z" fill="#E43B2C"></path> </svg> 