<?xml version="1.0" encoding="UTF-8"?> <svg xmlns="http://www.w3.org/2000/svg" width="514" height="167" viewBox="0 0 514 167" fill="none"> <path d="M105.693 65.215C112.109 58.5141 120.948 54.0944 130.358 54.0944C131.498 54.0944 132.639 54.0944 133.779 54.2369C134.065 54.2369 134.635 54.237 134.92 54.5221C134.492 54.237 134.777 54.3795 134.777 54.6647C134.635 56.8032 133.209 58.5141 132.069 60.0824C129.36 63.9318 126.081 67.4961 122.374 70.4901C118.239 73.9119 113.534 76.7633 108.544 78.7593C109.827 80.4702 111.111 82.3236 112.394 84.0345C119.807 79.8999 128.932 77.191 137.486 78.189C144.615 79.0445 144.33 87.4562 143.047 92.8739C139.625 107.844 130.785 121.531 119.807 131.939C107.689 143.344 92.4336 151.328 76.4655 156.033C68.4815 158.314 60.2123 160.025 51.9432 160.881C43.8166 161.594 35.5474 161.308 27.7059 158.742C20.2922 156.318 13.8765 151.328 10.1696 144.342C6.74787 138.069 5.46472 129.943 8.74387 123.242C9.45673 121.673 8.88645 119.963 7.31815 119.107C6.03501 118.394 3.32614 118.252 2.61328 119.963C-4.65789 134.79 4.18157 152.326 17.5833 160.168C33.8365 169.863 54.652 167.582 72.1884 163.447C90.295 159.027 107.974 151.186 122.089 138.925C135.205 127.519 145.613 112.406 149.748 95.5828C151.886 86.8859 150.888 76.193 141.051 73.0564C135.775 71.4882 129.645 72.0584 124.37 73.0564C118.952 74.0545 113.534 76.0505 108.687 78.7593C104.695 81.0405 109.114 85.4602 112.536 84.0345C123.372 79.6147 132.781 71.9159 139.34 62.221C140.908 59.9398 142.476 57.0884 141.906 54.2369C141.193 50.8152 138.057 49.1044 134.777 48.5341C129.075 47.6786 123.087 48.5341 117.669 50.3875C111.396 52.3835 105.55 56.0904 100.988 60.9378C99.8473 62.221 99.8473 63.9318 101.13 65.0724C101.843 65.9278 104.41 66.4981 105.693 65.215Z" fill="#E43B2C"></path> <path d="M182.111 61.793C180.828 55.2347 174.983 51.5278 169.422 48.9615C166.286 47.5358 162.864 46.3952 159.442 45.6824C155.735 44.9695 152.599 44.9695 150.033 47.9635C145.328 53.2387 143.617 61.0801 144.757 67.9236C145.328 70.9176 146.183 74.1967 148.749 76.1927C151.743 78.4739 156.306 80.3273 160.013 78.6165C162.009 77.761 163.719 76.3353 165.573 75.0522C167.426 73.6264 169.422 72.3433 171.276 70.9176C175.553 67.9236 179.688 64.787 183.965 61.793C181.826 60.795 179.545 59.9395 177.406 58.9415C176.408 62.0781 175.553 65.0721 174.555 68.2087C173.699 70.775 173.842 72.3433 176.408 73.769C178.69 75.0522 181.826 76.4779 184.392 75.3373C186.388 74.4819 188.384 73.0562 190.095 71.6304C197.794 65.2147 202.356 55.9475 206.491 47.1081C204.352 46.1101 202.071 45.2546 199.933 44.2566C194.372 58.9415 187.814 73.1987 179.973 86.8856C179.688 87.4559 185.961 90.7351 186.531 89.7371C194.23 76.0502 200.931 61.793 206.491 47.1081C206.776 46.2526 200.36 43.4012 199.933 44.2566C196.368 51.6704 192.662 59.2267 187.101 65.3573C184.678 68.0661 181.256 71.4879 177.691 72.6284C177.406 72.771 177.264 72.771 176.979 72.771C175.268 73.0562 176.551 73.6265 180.686 74.767C180.543 73.9116 180.4 73.769 180.543 72.9136C180.686 71.9156 181.113 70.9176 181.398 69.9196C182.254 67.3533 182.967 64.6444 183.822 62.0781C184.107 61.0801 178.119 58.6564 177.264 59.2267C171.561 63.3613 165.858 67.3533 160.298 71.4879C157.874 73.1987 155.165 75.9076 152.029 76.4779C151.743 76.6205 151.031 76.4779 150.745 76.6205C151.316 76.9056 151.886 77.0482 152.456 77.3333C154.025 78.3313 154.595 78.4739 153.882 77.9036C153.597 77.4759 153.169 77.0482 152.884 76.4779C152.171 75.1947 151.743 73.6264 151.458 72.2007C150.318 66.9256 151.031 61.2227 153.312 56.2327C154.452 53.809 155.878 51.2427 158.017 49.6744C160.44 47.9635 163.434 48.5338 166.143 49.3892C170.705 50.6724 174.555 54.3792 175.553 59.0841C175.695 60.0821 177.834 60.795 178.547 61.0801C178.832 61.0801 182.254 62.0781 182.111 61.793Z" fill="#E43B2C"></path> <path d="M193.374 70.3474C205.636 67.7811 217.041 61.7931 226.023 53.2388C227.592 51.6705 222.744 46.5379 221.176 48.1062C212.337 56.518 201.216 62.3634 189.24 64.9297C187.101 65.3574 191.093 70.9177 193.374 70.3474Z" fill="#E43B2C"></path> <path d="M286.474 36.5577C299.305 33.8488 311.994 30.5697 324.541 26.8628C326.109 26.4351 327.249 24.7242 326.537 23.1559C325.824 21.5877 323.543 20.7322 321.974 21.3025C309.428 25.0094 296.739 28.146 283.908 30.9974C282.197 31.2825 281.199 33.136 281.912 34.7043C282.624 36.4151 284.763 36.9854 286.474 36.5577Z" fill="#E43B2C"></path> <path d="M341.079 13.3184C330.956 28.431 323.685 45.2545 320.121 63.076C319.551 66.07 323.4 68.3512 325.966 66.6403C343.218 54.8069 356.904 38.2685 365.031 19.0213C362.75 18.3084 360.469 17.453 358.33 16.7401C354.481 27.0053 351.487 37.4131 349.206 48.106C348.635 50.6723 351.914 53.2386 354.338 51.9554C363.89 47.3931 372.445 41.2625 380.001 33.8488C377.862 32.8508 375.724 31.8528 373.585 30.8548C372.445 34.4191 371.447 37.8408 370.306 41.4051C369.308 44.5417 368.595 47.9634 371.874 50.102C377.292 53.5237 383.993 48.2485 388.413 45.5397C399.533 38.8388 409.941 31.1399 419.493 22.3004C423.343 18.7361 428.048 14.8867 429.188 9.46897C429.616 7.04525 429.474 4.62153 427.905 2.76809C425.767 0.201799 422.202 -0.511062 419.066 0.34437C413.505 1.91266 408.23 6.76011 404.951 11.3224C401.529 16.0273 399.248 22.0153 399.961 27.8607C400.674 33.9913 404.666 38.9814 410.797 40.6922C415.787 41.9754 422.202 41.1199 424.911 36.2725C423.343 36.4151 421.775 36.5576 420.064 36.7002C419.636 36.4151 420.064 36.7002 420.064 37.1279C420.064 36.8428 420.064 38.2685 420.064 38.2685C419.779 39.9794 419.066 41.5477 418.495 43.1159C417.355 46.3951 416.214 49.9594 417.64 53.3811C421.062 61.7929 432.895 60.7949 440.166 59.6543C456.562 56.9454 469.964 47.108 484.649 39.8368C492.775 35.7022 501.33 32.5656 510.597 31.9953C512.308 31.8528 513.591 30.2845 513.021 28.7162C512.45 26.8627 510.454 26.0073 508.744 26.1499C492.205 27.1479 478.233 35.8448 464.118 43.6862C457.275 47.3931 450.289 50.9574 442.59 52.8108C438.883 53.8088 435.034 54.3791 431.184 54.3791C428.618 54.3791 425.054 54.2366 424.198 51.9554C423.058 48.9614 425.481 45.112 426.337 42.4031C427.62 38.2685 427.335 34.7042 423.628 31.9953C422.487 31.1399 419.636 30.9973 418.781 32.4231C418.068 33.7062 417.212 34.4191 416.072 34.8468C414.931 35.2745 413.363 35.2745 412.507 34.9893C409.513 34.2765 407.66 32.1379 406.947 28.7162C405.236 20.0193 412.222 11.6076 419.066 7.3304C420.064 6.76011 420.919 6.18982 421.917 5.90468C422.63 5.61953 422.63 6.04725 422.202 5.47696C422.63 6.04725 422.345 7.61553 421.917 8.75611C420.492 12.6056 416.927 15.3144 414.076 18.0233C406.662 24.8667 398.821 30.9973 390.409 36.5576C387.985 38.1259 385.419 39.6942 382.995 41.2625C380.856 42.5457 378.718 43.9714 376.437 44.9694C376.152 45.1119 375.724 45.112 375.581 45.2545C375.154 45.2545 375.011 45.2545 375.154 45.3971C375.581 45.5397 376.009 45.8248 376.294 46.2525C376.722 46.11 377.292 43.5437 377.577 42.8308C378.575 39.6942 379.573 36.5576 380.571 33.2785C381.712 29.7142 376.294 28.1459 374.156 30.2845C367.455 36.9854 359.613 42.5457 351.059 46.6802C352.77 47.9634 354.481 49.2465 356.192 50.5297C358.473 39.8368 361.467 29.429 365.316 19.1639C366.599 15.5996 360.041 13.461 358.615 16.8827C350.774 35.1319 337.8 50.8148 321.404 62.078C323.4 63.2186 325.253 64.3592 327.249 65.6423C330.814 48.3911 337.657 31.8528 347.495 17.1679C349.348 13.6036 343.218 10.1818 341.079 13.3184Z" fill="#E43B2C"></path> <path d="M224.883 38.9816C218.467 51.6705 212.479 64.502 206.919 77.6186C205.493 81.0403 212.336 82.7512 213.62 79.8997C219.18 66.7831 225.168 53.9516 231.584 41.2627C233.152 37.9836 226.309 36.1302 224.883 38.9816Z" fill="#E43B2C"></path> <path d="M221.319 78.9016C230.586 75.6225 238.997 70.3473 245.841 63.3613C249.12 60.0821 252.114 56.2327 254.68 52.2407C256.961 48.6764 259.67 44.2567 259.243 39.8369C258.815 34.5618 253.54 32.9935 249.12 34.7043C244.13 36.5578 240.423 40.9775 237.857 45.3972C235.576 49.3892 233.152 54.6644 233.295 59.3693C233.58 65.3573 239.853 66.3553 244.558 64.3593C249.69 62.0781 253.825 56.803 256.819 52.2407C260.098 47.3932 262.522 42.1181 263.947 36.4152C264.375 34.8469 262.95 34.134 261.524 34.2766C259.813 34.4192 258.102 35.4172 257.389 37.1281C254.538 44.2567 252.399 51.5278 250.688 59.0841C250.261 60.795 249.975 62.6484 249.69 64.3593C249.405 65.9276 248.835 67.781 248.977 69.4919C249.263 73.1988 253.825 72.771 256.534 72.2007C269.508 69.6345 280.486 61.3653 289.183 51.813C291.606 49.1041 293.888 46.3952 296.169 43.5438C298.592 40.4072 300.589 36.9855 300.731 32.9935C300.874 29.7143 294.743 32.2806 294.173 34.2766C291.179 45.3972 288.042 56.3753 285.048 67.4959C284.763 68.779 285.476 69.4919 286.616 69.6345C288.042 69.777 289.61 69.0642 290.608 68.0662C295.456 63.6464 301.159 61.793 307.147 59.9396C314.418 57.801 321.261 55.0921 327.677 51.1001C328.818 50.3873 329.958 48.819 328.818 47.6784C327.677 46.5378 325.396 47.5358 324.255 48.2487C317.982 52.0981 311.424 54.0941 304.438 56.2327C297.452 58.3713 291.179 61.2227 285.761 66.2127C287.614 66.3553 289.61 66.6404 291.464 66.783C294.458 55.6624 297.594 44.6844 300.588 33.5638C298.45 33.9915 296.169 34.4192 294.03 34.8469C293.888 40.1221 289.04 44.6844 285.761 48.3912C282.197 52.3833 278.49 56.0901 274.213 59.3693C270.078 62.3633 265.658 65.0722 260.668 66.4979C259.528 66.783 258.387 67.2107 257.247 67.3533C256.249 67.4959 255.678 67.9236 255.678 66.6404C255.821 63.5039 256.676 60.2247 257.389 57.2307C258.957 50.1021 261.096 43.1161 263.805 36.2726C261.666 36.5578 259.528 36.7003 257.247 36.9855C255.251 44.3992 251.544 51.5278 246.269 57.0881C245.413 58.0861 244.13 59.6544 242.847 60.0821C241.421 60.6524 240.138 59.2267 239.853 57.9436C239.14 54.5218 241.136 50.2447 242.704 47.2507C243.56 45.5398 244.558 43.9715 245.698 42.5458C246.696 41.2626 247.837 39.5518 249.263 38.9815C252.114 37.6984 252.399 42.2607 252.114 43.9715C251.401 47.2507 249.405 50.3873 247.552 53.0961C245.556 56.0901 243.132 58.9416 240.566 61.5079C235.005 67.0682 228.305 71.4879 221.033 74.0542C219.75 74.4819 217.612 75.6225 217.754 77.3333C217.897 79.1868 220.178 79.3293 221.319 78.9016Z" fill="#E43B2C"></path> </svg> 